<mxfile host="65bd71144e">
    <diagram id="6eeNy7iLVP-R12YRyXGg" name="Page-1">
        <mxGraphModel dx="1635" dy="1157" grid="1" gridSize="10" guides="1" tooltips="1" connect="1" arrows="1" fold="1" page="0" pageScale="1" pageWidth="827" pageHeight="1169" math="0" shadow="0">
            <root>
                <mxCell id="0"/>
                <mxCell id="1" parent="0"/>
                <mxCell id="8" style="edgeStyle=none;html=1;" parent="1" source="2" target="3" edge="1">
                    <mxGeometry relative="1" as="geometry">
                        <Array as="points"/>
                    </mxGeometry>
                </mxCell>
                <mxCell id="25" value="then" style="edgeLabel;html=1;align=center;verticalAlign=middle;resizable=0;points=[];fontFamily=Courier New;" vertex="1" connectable="0" parent="8">
                    <mxGeometry x="0.3903" relative="1" as="geometry">
                        <mxPoint y="-16" as="offset"/>
                    </mxGeometry>
                </mxCell>
                <mxCell id="2" value="&lt;span style=&quot;font-size: 11px&quot;&gt;The connection starts when&amp;nbsp;&lt;font face=&quot;Courier New&quot;&gt;VirtualEnvironment&lt;/font&gt; calls &lt;br&gt;&lt;font face=&quot;Courier New&quot;&gt;new RemoteController()&lt;/font&gt;&lt;/span&gt;" style="rounded=0;whiteSpace=wrap;html=1;fillColor=#000033;" parent="1" vertex="1">
                    <mxGeometry x="160" y="-80" width="240" height="80" as="geometry"/>
                </mxCell>
                <mxCell id="4" style="edgeStyle=none;html=1;" parent="1" source="3" target="6" edge="1">
                    <mxGeometry relative="1" as="geometry">
                        <mxPoint x="370" y="330" as="targetPoint"/>
                        <Array as="points">
                            <mxPoint x="280" y="200"/>
                            <mxPoint x="80" y="200"/>
                        </Array>
                    </mxGeometry>
                </mxCell>
                <mxCell id="9" value="False" style="edgeLabel;html=1;align=center;verticalAlign=middle;resizable=0;points=[];" parent="4" vertex="1" connectable="0">
                    <mxGeometry x="0.1781" y="3" relative="1" as="geometry">
                        <mxPoint x="21" y="-3" as="offset"/>
                    </mxGeometry>
                </mxCell>
                <mxCell id="5" style="edgeStyle=none;html=1;" parent="1" source="3" target="7" edge="1">
                    <mxGeometry relative="1" as="geometry">
                        <mxPoint x="450.0000000000002" y="240.0000000000001" as="targetPoint"/>
                        <mxPoint x="290" y="160" as="sourcePoint"/>
                        <Array as="points">
                            <mxPoint x="280" y="200"/>
                            <mxPoint x="480" y="200"/>
                        </Array>
                    </mxGeometry>
                </mxCell>
                <mxCell id="10" value="True" style="edgeLabel;html=1;align=center;verticalAlign=middle;resizable=0;points=[];" parent="5" vertex="1" connectable="0">
                    <mxGeometry x="0.3297" y="3" relative="1" as="geometry">
                        <mxPoint x="-39" y="3" as="offset"/>
                    </mxGeometry>
                </mxCell>
                <mxCell id="3" value="The &lt;font face=&quot;Courier New&quot;&gt;constructor&lt;/font&gt; of &lt;font face=&quot;Courier New&quot;&gt;RemoteController&lt;/font&gt;&amp;nbsp;checks if &lt;font face=&quot;Courier New&quot;&gt;localProxy&lt;/font&gt; contains a &lt;font face=&quot;Courier New&quot;&gt;peerId&lt;/font&gt; attribute:&lt;br&gt;&lt;br&gt;&lt;font face=&quot;Courier New&quot;&gt;localProxy.peerId !== unedefined&lt;/font&gt;" style="rounded=0;whiteSpace=wrap;html=1;" parent="1" vertex="1">
                    <mxGeometry x="160" y="80" width="240" height="80" as="geometry"/>
                </mxCell>
                <mxCell id="12" style="edgeStyle=none;html=1;" parent="1" source="6" target="11" edge="1">
                    <mxGeometry relative="1" as="geometry"/>
                </mxCell>
                <mxCell id="14" value="onClick" style="edgeLabel;html=1;align=center;verticalAlign=middle;resizable=0;points=[];" parent="12" vertex="1" connectable="0">
                    <mxGeometry x="0.272" y="1" relative="1" as="geometry">
                        <mxPoint x="-1" y="-11" as="offset"/>
                    </mxGeometry>
                </mxCell>
                <mxCell id="6" value="&lt;font face=&quot;Courier New&quot;&gt;RemoteController&lt;/font&gt; calls &lt;font face=&quot;Courier New&quot;&gt;goLivePanel(this)&lt;/font&gt;&amp;nbsp;to popup the start multiplayer button" style="rounded=0;whiteSpace=wrap;html=1;" parent="1" vertex="1">
                    <mxGeometry x="-40" y="240" width="240" height="80" as="geometry"/>
                </mxCell>
                <mxCell id="20" style="edgeStyle=none;html=1;" edge="1" parent="1" source="7" target="19">
                    <mxGeometry relative="1" as="geometry"/>
                </mxCell>
                <mxCell id="24" value="then" style="edgeLabel;html=1;align=center;verticalAlign=middle;resizable=0;points=[];fontFamily=Courier New;" vertex="1" connectable="0" parent="20">
                    <mxGeometry x="0.2674" relative="1" as="geometry">
                        <mxPoint y="-11" as="offset"/>
                    </mxGeometry>
                </mxCell>
                <mxCell id="7" value="&lt;font face=&quot;Courier New&quot;&gt;RemoteController&lt;/font&gt; saves the submited&lt;font face=&quot;Courier New&quot;&gt; peerId&lt;/font&gt; in &lt;font face=&quot;Courier New&quot;&gt;localProxy&lt;/font&gt; then calls&lt;br&gt;&lt;font face=&quot;Courier New&quot;&gt;new Peer(localProxy.peerId)&lt;/font&gt;" style="rounded=0;whiteSpace=wrap;html=1;fillColor=#003300;" parent="1" vertex="1">
                    <mxGeometry x="360" y="240" width="240" height="80" as="geometry"/>
                </mxCell>
                <mxCell id="11" value="Clicked panel calls&amp;nbsp;&lt;br&gt;&lt;font face=&quot;Courier New&quot;&gt;peerIdSelectPanel(remoteController)&lt;br&gt;&lt;/font&gt;to popup the peerId select form" style="rounded=0;whiteSpace=wrap;html=1;" parent="1" vertex="1">
                    <mxGeometry x="-50" y="400" width="260" height="80" as="geometry"/>
                </mxCell>
                <mxCell id="17" style="edgeStyle=none;html=1;entryX=0;entryY=0.5;entryDx=0;entryDy=0;" edge="1" parent="1" source="11" target="7">
                    <mxGeometry relative="1" as="geometry">
                        <mxPoint x="149.99999999999977" y="410.0000000000001" as="sourcePoint"/>
                        <mxPoint x="119.99999999999977" y="480" as="targetPoint"/>
                        <Array as="points">
                            <mxPoint x="280" y="440"/>
                            <mxPoint x="280" y="280"/>
                        </Array>
                    </mxGeometry>
                </mxCell>
                <mxCell id="18" value="onSubmit" style="edgeLabel;html=1;align=center;verticalAlign=middle;resizable=0;points=[];" vertex="1" connectable="0" parent="17">
                    <mxGeometry x="0.272" y="1" relative="1" as="geometry">
                        <mxPoint x="1" y="47" as="offset"/>
                    </mxGeometry>
                </mxCell>
                <mxCell id="22" style="edgeStyle=none;html=1;" edge="1" parent="1" source="19" target="11">
                    <mxGeometry relative="1" as="geometry">
                        <mxPoint x="200" y="440" as="targetPoint"/>
                        <Array as="points">
                            <mxPoint x="480" y="520"/>
                            <mxPoint x="350" y="520"/>
                            <mxPoint x="80" y="520"/>
                        </Array>
                    </mxGeometry>
                </mxCell>
                <mxCell id="23" value="onClick" style="edgeLabel;html=1;align=center;verticalAlign=middle;resizable=0;points=[];" vertex="1" connectable="0" parent="22">
                    <mxGeometry x="-0.2014" relative="1" as="geometry">
                        <mxPoint x="-48" as="offset"/>
                    </mxGeometry>
                </mxCell>
                <mxCell id="19" value="&lt;font face=&quot;Courier New&quot;&gt;RemoteConrtoller&lt;/font&gt; calls &lt;font face=&quot;Courier New&quot;&gt;peerIdDisplay()&lt;/font&gt; to popup small peerId display" style="rounded=0;whiteSpace=wrap;html=1;" vertex="1" parent="1">
                    <mxGeometry x="360" y="400" width="240" height="80" as="geometry"/>
                </mxCell>
            </root>
        </mxGraphModel>
    </diagram>
</mxfile>